<svg xmlns="http://www.w3.org/2000/svg" viewBox="0 0 18 21"><path fill="#4F4F4F" d="m12.723 12.314-.055-.025a8.674 8.674 0 0 0-1.973-.613l-.045-.008a7.618 7.618 0 0 0-.344-.058l-.033-.005h-.004l-.033-.005a8.417 8.417 0 0 0-.291-.038l-.339-.028a9.387 9.387 0 0 0-1.257.004l-.12.01-.056.004-.14.012c-.129.013-.257.03-.385.05l-.037.006a12.16 12.16 0 0 0-.545.1 9.187 9.187 0 0 0-.946.262l-.09.031a9.516 9.516 0 0 0-.813.324l-.071.032-.001.002C2.05 13.815.056 16.892.056 20.231c0 .077.005.152.01.228l.023.53H17.9l.023-.524c.005-.078.01-.155.01-.234 0-3.392-2.043-6.496-5.21-7.917zM.929 20.137c.038-2.998 1.855-5.748 4.625-7.014l.09-.035.01-.01a8.39 8.39 0 0 1 .667-.262l.072-.025a7.992 7.992 0 0 1 1.115-.287c.069-.013.137-.026.207-.036l.034-.006c.125-.02.25-.037.375-.05l.285-.024c.374-.027.732-.03 1.165 0l.277.022.22.028.1.014c.105.015.21.033.314.052l.049.009c.059.01.117.022.173.033a8.037 8.037 0 0 1 .837.226 7.827 7.827 0 0 1 .782.301l.022.01c2.833 1.268 4.672 4.026 4.71 7.053H.929zm5.907-9.697c.066.027.133.05.201.074l.142.05c.054.02.11.04.165.058.52.16 1.065.241 1.619.246h.044c.19 0 .38-.01.562-.027.063-.006.124-.016.186-.026l.137-.02c.076-.01.153-.021.234-.037.055-.01.108-.025.161-.039l.15-.037c.073-.017.147-.035.22-.057.045-.014.09-.03.134-.046l.12-.042c.085-.03.172-.06.258-.094.034-.014.067-.03.099-.045l.039-.019a5.4 5.4 0 0 0 .353-.166l.076-.044c.13-.072.261-.147.394-.235.068-.045.134-.096.198-.146l.224-.17c1.285-1.037 2.024-2.56 2.024-4.139l.002-.045c0-2.996-2.5-5.434-5.572-5.434-2.932 0-5.372 2.237-5.554 5.092l-.005.07c-.007.09-.013.18-.013.272 0 2.189 1.335 4.154 3.402 5.006zM4.317 5.221l.006-.076C4.476 2.737 6.533.852 9.006.852c2.591 0 4.699 2.055 4.7 4.543l-.002.045c-.002 1.363-.625 2.647-1.714 3.529l-.207.154a2.368 2.368 0 0 1-.151.112 4.44 4.44 0 0 1-.329.194l-.062.037c-.094.05-.194.094-.297.138l-.115.055c-.067.027-.136.05-.205.073l-.145.051-.083.03c-.054.016-.109.028-.164.041l-.174.044c-.037.01-.074.02-.108.026-.058.012-.117.02-.176.027l-.166.025c-.04.006-.08.013-.125.017a4.695 4.695 0 0 1-.44.025H9a4.777 4.777 0 0 1-1.396-.208c-.039-.012-.077-.026-.115-.04l-.164-.059a2.207 2.207 0 0 1-.15-.054c-1.743-.72-2.87-2.377-2.87-4.223 0-.072.006-.142.011-.213z"/></svg>