<svg xmlns="http://www.w3.org/2000/svg" viewBox="0 0 25 23"><path fill="#4F4F4F" d="M12.198 20.66c0-1.278-1.065-2.315-2.378-2.315-1.313 0-2.378 1.037-2.378 2.316s1.065 2.316 2.378 2.316c1.312-.002 2.376-1.038 2.378-2.316zm-3.913 0c0-.825.687-1.494 1.535-1.494.847 0 1.534.67 1.534 1.495 0 .825-.687 1.494-1.534-1.506s-1.534-.67-1.535-1.494zm10.34 2.317c1.313 0 2.377-1.037 2.377-2.316 0-1.28-1.064-2.316-2.377-2.316-1.313 0-2.378 1.037-2.378 2.316.002 1.278 1.065 2.314 2.378 2.316zm0-3.81c.847 0 1.534.668 1.534 1.494 0 .825-.687 1.494-1.534 1.494-.848 0-1.535-.669-1.535-1.494.001-.825.688-1.494 1.535-1.495zM.422.821h2.572c.846-.003 1.568.597 1.697 1.412l2.036 12.528c.192 1.215 1.268 2.11 2.53 2.105h12.586a.417.417 0 0 0 .422-.41.416.416 0 0 0-.422-.412H9.257c-.846.004-1.568-.597-1.697-1.412l-.346-2.13h12.89c1.092 0 2.063-.673 2.42-1.677l2.392-6.723a.402.402 0 0 0-.054-.373.426.426 0 0 0-.344-.173H5.76l-.236-1.451C5.332.89 4.256-.005 2.994 0H.422A.416.416 0 0 0 0 .41c0 .228.189.411.422.411zm23.504 3.557-2.198 6.177a1.717 1.717 0 0 1-1.624 1.126H7.08L5.893 4.378h18.033z"/></svg>