<svg viewBox="0 0 30 29" version="1.1" xmlns="http://www.w3.org/2000/svg" xmlns:xlink="http://www.w3.org/1999/xlink">
    <g id="Desktop" stroke="none" stroke-width="1" fill="none" fill-rule="evenodd">
        <g id="Home" transform="translate(-449.000000, -704.000000)" fill="#2C575A" fill-rule="nonzero">
            <g id="contact" transform="translate(449.000000, 704.000000)">
                <path d="M28.7176172,0.0483135246 L7.76765625,0.0483135246 C7.06382812,0.0491454918 6.49347656,0.62760041 6.49265625,1.34142828 L6.49265625,7.20204303 L5.53464844,5.74461475 C5.09613281,5.07375205 4.21423828,4.87247541 3.53466797,5.28822131 L1.56369141,6.49005738 C0.918222656,6.87418852 0.444726562,7.49709426 0.242695312,8.22791803 C-0.476308594,10.8831414 0.0571875,15.4577131 6.67769531,22.173293 C11.9426367,27.5075102 15.868125,28.9441393 18.5736328,28.9441393 C19.2,28.9470512 19.8239648,28.8645082 20.4286523,28.698709 C21.1489453,28.4938074 21.763125,28.0142377 22.1426367,27.3604898 L23.3261133,25.3594303 C23.7343945,24.6707398 23.5361133,23.7781578 22.8761133,23.3335307 L18.1566211,20.1428176 C17.5092187,19.7085307 16.6414453,19.851332 16.1626172,20.4709098 L14.7885937,22.2624918 C14.6449805,22.4542008 14.3844727,22.5100615 14.176582,22.3938238 L13.9150781,22.2477541 C13.0545703,21.7721066 11.9835937,21.1798053 9.82060547,18.9860861 C9.58658203,18.7487377 9.37458984,18.5266619 9.17560547,18.3141537 L28.7176172,18.3141537 C29.4196875,18.3146885 29.9898633,17.7391455 29.9926172,17.0271004 L29.9926172,1.34142828 C29.9917969,0.62760041 29.4214453,0.0491454918 28.7176172,0.0483135246 Z M13.4366016,23.1383156 L13.6906055,23.2798094 C14.3291016,23.6418934 15.132832,23.4738955 15.5780859,22.8852787 L16.9521094,21.0936967 C17.1083203,20.8918852 17.3909766,20.8453545 17.6020898,20.9866701 L22.321582,24.1773832 C22.5359766,24.3223238 22.6004297,24.6124426 22.4680664,24.8365984 L21.2845898,26.8376578 C21.0374414,27.2674877 20.6358984,27.5836352 20.1641016,27.7200184 C17.8006055,28.3792336 13.6641211,27.821459 7.38609375,21.4537602 C1.10806641,15.0860615 0.56015625,10.8912234 1.20861328,8.49616803 C1.34296875,8.01772746 1.65451172,7.61053893 2.07808594,7.35976025 L4.05111328,6.15893443 C4.2721875,6.0249877 4.55806641,6.09029713 4.70109375,6.3075 L7.84857422,11.0940451 C7.98814453,11.3080984 7.94226562,11.5950082 7.74304688,11.7532602 L5.97603516,13.1472807 C5.39578125,13.5987418 5.23007813,14.4137131 5.58703125,15.0611025 L5.72701172,15.3187152 C6.22699219,16.2487357 6.84849609,17.4059426 9.11402344,19.703123 C11.3796094,22.0003627 12.5201367,22.6311721 13.4366016,23.1383156 Z M28.9926562,17.0271598 C28.9910156,17.179707 28.8680273,17.302125 28.7176758,17.3009959 L8.27361328,17.3009959 C7.62421875,16.5478279 7.06423828,15.7200205 6.60509766,14.8344508 L6.46107422,14.5682213 C6.34623047,14.3578525 6.40119141,14.0938811 6.59009766,13.9485246 L8.35710938,12.5545041 C8.96824219,12.0689918 9.10904297,11.1887705 8.68060547,10.5321701 L7.49261719,8.72382992 L7.49261719,1.34142828 C7.49179687,1.26720492 7.52050781,1.19577459 7.57224609,1.14330123 C7.62398438,1.09082787 7.69441406,1.06170902 7.76759766,1.06254098 L28.7176172,1.06254098 C28.7908008,1.06170902 28.8612305,1.09082787 28.9129687,1.14330123 C28.964707,1.19577459 28.993418,1.26720492 28.9925977,1.34142828 L28.9925977,17.0271598 L28.9926562,17.0271598 Z" id="Shape"></path>
                <path d="M26.9956055,2.39624385 L18.639082,8.82378484 C18.4026562,8.99802254 18.0825,8.99802254 17.8460742,8.82378484 L9.49265625,2.39624385 C9.27257813,2.22693852 8.95880859,2.27067623 8.79193359,2.49388115 C8.625,2.71708607 8.668125,3.03531352 8.88820313,3.20455943 L17.2426758,9.63156557 C17.8370508,10.0769057 18.6482812,10.0769057 19.2426562,9.63156557 L27.5996484,3.20455943 C27.7054102,3.12326434 27.7749609,3.0026291 27.7929492,2.86927664 C27.8109375,2.73592418 27.775957,2.60078893 27.695625,2.49364344 C27.52875,2.27085451 27.2155078,2.22729508 26.9956055,2.39624385 Z" id="Path"></path>
                <path d="M13.9756055,9.67417418 L8.85363281,15.237123 C8.6653125,15.4419652 8.67638672,15.7629262 8.87835937,15.9539221 C9.08033203,16.144918 9.39679687,16.1336865 9.58511719,15.9288443 L14.7071484,10.3633996 C14.8763672,10.1563586 14.8567383,9.85132377 14.6625,9.66823156 C14.4682031,9.48513934 14.1667969,9.4877541 13.9756055,9.67417418 Z" id="Path"></path>
                <path d="M22.5426563,9.67417418 C22.3543359,9.46933197 22.0379297,9.45804098 21.8358984,9.64909631 C21.6339258,9.84009221 21.622793,10.1609939 21.8111719,10.3658955 L26.9316797,15.9288443 C27.12,16.1336865 27.4364063,16.1449775 27.6384375,15.9539221 C27.8404102,15.7629262 27.851543,15.4420246 27.6631641,15.237123 L22.5426563,9.67417418 Z" id="Path"></path>
            </g>
        </g>
    </g>
</svg>