<svg viewBox="0 0 36 27" version="1.1" xmlns="http://www.w3.org/2000/svg" xmlns:xlink="http://www.w3.org/1999/xlink">

    <g id="Desktop" stroke="none" stroke-width="1" fill="none" fill-rule="evenodd">
        <g id="Home" transform="translate(-1036.000000, -700.000000)" fill="#2C575A" fill-rule="nonzero">
            <g id="delivery-truck" transform="translate(1036.000000, 700.000000)">
                <path d="M29.1443906,8.65472074 L26.8779375,8.65472074 L27.5608125,0.647425532 C27.5620781,0.632920213 27.5622891,0.618630319 27.5623594,0.604340426 C27.5623594,0.603119681 27.5625,0.601970745 27.5625,0.60075 C27.5625,0.600534574 27.5625,0.600390957 27.5625,0.600175532 C27.5625,0.382236702 27.4337578,0.190148936 27.2445469,0.106635638 C27.2429297,0.105917553 27.2413828,0.105055851 27.2397656,0.104337766 C27.2280234,0.0993111702 27.2158594,0.0950026596 27.203625,0.090837766 C27.1990547,0.0893297872 27.1946953,0.087462766 27.190125,0.0860265957 C27.1801406,0.0829388298 27.169875,0.0804973404 27.1596797,0.0779840426 C27.1525078,0.0762606383 27.1456172,0.0741781915 27.138375,0.0727420213 C27.1294453,0.0709468085 27.1201641,0.0697978723 27.1110234,0.0684335106 C27.1024453,0.0671409574 27.0940078,0.0656329787 27.0853594,0.0648430851 C27.0838828,0.0646994681 27.0825469,0.064412234 27.0810703,0.064268617 C27.0717891,0.0634069149 27.0626484,0.0635505319 27.0534375,0.0631914894 C27.04725,0.0629760638 27.0412031,0.0622579787 27.0350156,0.0622579787 L27.0284063,0.0622579787 C27.0278438,0.0622579787 27.0272813,0.0622579787 27.0267891,0.0622579787 L16.2428906,0.0622579787 C15.9517969,0.0622579787 15.7155469,0.303534574 15.7155469,0.600821809 C15.7155469,0.897390957 15.9517969,1.13938564 16.2428906,1.13938564 L26.4602109,1.13938564 L25.4107266,13.4455691 C25.4105859,13.4465027 25.4105859,13.4474362 25.4104453,13.4483697 L25.1456484,16.5534415 L6.82157813,16.5534415 L7.12807031,13.3222021 L10.6170469,13.3222021 C10.9083516,13.3222021 11.1443906,13.0810691 11.1443906,12.7836383 C11.1443906,12.4862074 10.9083516,12.2450745 10.6170469,12.2450745 L7.23030469,12.2450745 L7.87746094,5.423625 L13.4303906,5.423625 C13.7216953,5.423625 13.9577344,5.18249202 13.9577344,4.88506117 C13.9577344,4.58763032 13.7216953,4.34649734 13.4303906,4.34649734 L7.97969531,4.34649734 L8.28400781,1.13938564 L14.1335156,1.13938564 C14.4239062,1.13938564 14.6608594,0.897390957 14.6608594,0.600821809 C14.6608594,0.303534574 14.4239062,0.0622579787 14.1335156,0.0622579787 L7.80539063,0.0622579787 C7.80510937,0.0622579787 7.80489844,0.0623297872 7.80461719,0.0623297872 C7.55690625,0.0622579787 7.34203125,0.240343085 7.29007031,0.487220745 C7.28971875,0.489015957 7.28908594,0.490739362 7.28873438,0.492534574 C7.2860625,0.505962766 7.28430469,0.519678191 7.28254688,0.533465426 C7.28205469,0.537845745 7.28114063,0.542010638 7.28071875,0.546390957 C7.28064844,0.54725266 7.2804375,0.548042553 7.28036719,0.548904255 L6.92008594,4.34649734 L0.52734375,4.34649734 C0.236039063,4.34649734 0,4.58763032 0,4.88506117 C0,5.18249202 0.236039063,5.423625 0.52734375,5.423625 L6.81785156,5.423625 L6.17069531,12.2450745 L4.28920313,12.2450745 C3.99789844,12.2450745 3.76185938,12.4862074 3.76185938,12.7836383 C3.76185938,13.0810691 3.99789844,13.3222021 4.28920313,13.3222021 L6.06853125,13.3222021 L5.716125,17.0362101 C5.71605469,17.0367846 5.71605469,17.037359 5.71598438,17.0378617 L5.17113281,22.7810346 C5.1710625,22.7816809 5.17099219,22.7823989 5.17092188,22.7829734 L5.17071094,22.7850559 C5.17000781,22.7925239 5.17007813,22.7998484 5.16965625,22.8073165 C5.16916406,22.8172261 5.16817969,22.8269202 5.16817969,22.8369734 C5.16817969,22.8374043 5.16825,22.8378351 5.16825,22.8383378 C5.16825,22.8521968 5.16923438,22.8658404 5.17021875,22.879484 C5.17064063,22.8838644 5.1705,22.8883165 5.17099219,22.892625 C5.17239844,22.9065559 5.17471875,22.9202713 5.17717969,22.9339149 C5.17788281,22.9379362 5.17823438,22.9420293 5.17900781,22.9459787 C5.18104688,22.9563191 5.18392969,22.9663005 5.18660156,22.9764255 C5.18842969,22.9835346 5.18990625,22.9907872 5.19201563,22.9977527 C5.19264844,22.9996915 5.19349219,23.0015585 5.19405469,23.0035691 C5.21957813,23.0837074 5.26289063,23.1556596 5.31942188,23.2143989 C5.32047656,23.2154761 5.32132031,23.2166968 5.322375,23.2177021 C5.328,23.2234468 5.33411719,23.228617 5.34002344,23.2340745 C5.376375,23.2681117 5.4174375,23.2969787 5.46236719,23.3195984 C5.47171875,23.3243378 5.48092969,23.3292926 5.49049219,23.3333856 C5.493375,23.3346782 5.49646875,23.3355399 5.49942188,23.3366888 C5.51264063,23.3420745 5.52592969,23.3472447 5.53964063,23.351625 C5.54090625,23.351984 5.54210156,23.3521995 5.54336719,23.3526303 C5.55897656,23.3573697 5.57472656,23.3615346 5.59082813,23.3649096 C5.5929375,23.3653404 5.59511719,23.365484 5.59715625,23.3659149 C5.61248438,23.368859 5.62788281,23.3713723 5.6435625,23.3729521 C5.64391406,23.3729521 5.64419531,23.3730239 5.64454688,23.3730957 C5.66184375,23.3748191 5.679,23.3756809 5.69601563,23.3756809 C5.69622656,23.3756809 5.69650781,23.375609 5.69678906,23.375609 L8.04438281,23.375609 C8.303625,25.3828723 9.98866406,26.9375266 12.0238594,26.9375266 C14.0589141,26.9375266 15.7439531,25.3828723 16.0031953,23.375609 L24.4617188,23.375609 C24.7210313,25.3828723 26.406,26.9375266 28.441125,26.9375266 C30.4761797,26.9375266 32.1613594,25.3828723 32.4206719,23.375609 L34.7688281,23.375609 C34.7691797,23.375609 34.7696016,23.3756809 34.7699531,23.3756809 C34.7875313,23.3756809 34.8048281,23.3746037 34.8219844,23.3728803 C34.8250781,23.3725931 34.8280313,23.3719468 34.831125,23.3715878 C34.8448359,23.3699362 34.8584766,23.3679973 34.8718359,23.3652686 C34.8776016,23.3641197 34.8831563,23.3625399 34.8888516,23.3611755 C34.8991875,23.358734 34.9095938,23.3561489 34.9197188,23.3530612 C34.9266094,23.3509787 34.9332891,23.3485372 34.9400391,23.3461676 C34.9486875,23.3431516 34.9573359,23.339992 34.9658438,23.3364734 C34.9731563,23.3335293 34.9801172,23.3302979 34.9872188,23.3270665 C34.9949531,23.3234043 35.0026875,23.3196702 35.0102109,23.3157207 C35.0173828,23.3119867 35.0242734,23.308109 35.0311641,23.3040878 C35.0384063,23.2997793 35.0455781,23.2953271 35.0526797,23.2907314 C35.0592891,23.2864229 35.0658984,23.2820426 35.0722266,23.2774468 C35.0793984,23.2723484 35.0862188,23.2669628 35.0931797,23.2615053 C35.0989453,23.2568378 35.1047813,23.252242 35.1104063,23.247359 C35.1176484,23.2411117 35.1244688,23.2345771 35.1313594,23.2278989 C35.1361406,23.2232314 35.1411328,23.2186356 35.1457734,23.2137527 C35.1530859,23.206141 35.1600469,23.1980984 35.1670078,23.189984 C35.1707344,23.1856037 35.1746016,23.181367 35.1781875,23.1769149 C35.1859219,23.1671489 35.1929531,23.1570957 35.1999844,23.1469707 C35.202375,23.1434521 35.2050469,23.1401489 35.2073672,23.1365585 C35.2159453,23.1234176 35.2240313,23.1099176 35.2314844,23.0959867 C35.2320469,23.095125 35.2326094,23.0943351 35.2329609,23.0934016 C35.2409063,23.0784654 35.2482188,23.0631702 35.2547578,23.0473723 C35.2565859,23.0428484 35.2579922,23.0381809 35.25975,23.0336569 C35.2640391,23.0225266 35.2682578,23.0113963 35.2718438,22.9998351 C35.2741641,22.992367 35.2758516,22.9846835 35.2778906,22.9771436 C35.2802109,22.9681676 35.2826719,22.9592633 35.2846406,22.9501436 C35.2863984,22.9420293 35.2875234,22.9336995 35.2888594,22.9254415 C35.2900547,22.9181888 35.2916016,22.9110798 35.2925156,22.9036835 C35.314875,22.7207154 35.7278203,19.3371702 35.91225,17.1493085 C35.9124609,17.1472261 35.9125313,17.1450718 35.9127422,17.1429894 C35.9658281,16.5122952 35.9998594,15.9811995 35.9998594,15.6560505 C35.9998594,11.7955532 32.9245313,8.65472074 29.1443906,8.65472074 Z M26.7860391,9.73199202 L28.9434375,9.73199202 L28.6678828,12.9630878 L26.5104844,12.9630878 L26.7860391,9.73199202 Z M12.024,25.8603271 C10.3915547,25.8603271 9.06349219,24.504008 9.06349219,22.8369016 C9.06349219,21.1697952 10.391625,19.8134761 12.024,19.8134761 C13.656375,19.8134761 14.9844375,21.1697952 14.9844375,22.8369016 C14.9844375,24.504008 13.656375,25.8603271 12.024,25.8603271 Z M28.441125,25.8603271 C26.80875,25.8603271 25.4807578,24.504008 25.4807578,22.8369016 C25.4807578,21.1697952 26.8088203,19.8134761 28.441125,19.8134761 C30.0735703,19.8134761 31.4016328,21.1697952 31.4016328,22.8369016 C31.4016328,24.504008 30.0735703,25.8603271 28.441125,25.8603271 Z M34.3028672,22.2981223 L32.4208125,22.2981223 C32.1616406,20.2907154 30.4765313,18.7359894 28.4412656,18.7359894 C26.4061406,18.7359894 24.7210313,20.2907872 24.4618594,22.2981223 L16.0034063,22.2981223 C15.7442344,20.2907154 14.0591953,18.7359894 12.024,18.7359894 C9.98880469,18.7359894 8.303625,20.2907872 8.04445313,22.2981223 L6.27651563,22.2981223 L6.71941406,17.6302819 L25.6289063,17.6302819 L25.6289063,17.6305691 C25.6291875,17.6305691 25.6293984,17.6305691 25.6296797,17.6305691 C25.6473281,17.6305691 25.6648359,17.6295638 25.6821328,17.6277686 C25.6853672,17.6274814 25.6885313,17.6267633 25.6917656,17.6263324 C25.7055469,17.6246809 25.7192578,17.6226702 25.7327578,17.6199415 C25.7385938,17.6187207 25.7442891,17.6170691 25.7500547,17.615633 C25.7606016,17.6130479 25.7711484,17.6105346 25.7814141,17.607375 C25.7884453,17.6052207 25.795125,17.6026356 25.8019453,17.6001941 C25.8108047,17.5970346 25.8196641,17.5939468 25.8282422,17.5903564 C25.835625,17.5872686 25.8427266,17.5838218 25.8498984,17.580375 C25.8577031,17.5767128 25.8655078,17.5730505 25.8730313,17.5690293 C25.8802031,17.5651516 25.8872344,17.5609867 25.8943359,17.5568218 C25.9015781,17.5525133 25.90875,17.548133 25.9157813,17.5435372 C25.9226016,17.5390133 25.9290703,17.5342739 25.9356094,17.5295346 C25.9425703,17.524508 25.9493203,17.5193378 25.9560703,17.5139521 C25.9621172,17.5089973 25.9680938,17.5038989 25.974,17.4986569 C25.9806797,17.4927686 25.9872188,17.4867367 25.9935469,17.4804894 C25.9988906,17.4752473 26.0042344,17.4698617 26.0094375,17.4643324 C26.0157656,17.4575824 26.0218828,17.450617 26.0279297,17.443508 C26.0326406,17.4379069 26.0372813,17.4323059 26.0417813,17.4265612 C26.0476172,17.4190213 26.0531719,17.411266 26.0586563,17.4034388 C26.0628047,17.3975505 26.0668125,17.3916622 26.07075,17.3856303 C26.0758828,17.377516 26.0808047,17.3691862 26.0855156,17.3607128 C26.0891016,17.3543936 26.0927578,17.3480745 26.0959922,17.3416117 C26.1004219,17.3331383 26.1042188,17.3245213 26.1082266,17.3158324 C26.1113203,17.308867 26.1144844,17.3020452 26.1172969,17.2948644 C26.1207422,17.286391 26.123625,17.2777021 26.1266484,17.2690133 C26.12925,17.2613298 26.1319922,17.2536463 26.1343125,17.2457473 C26.1366328,17.2374176 26.1385313,17.2288723 26.1406406,17.2203989 C26.1426797,17.2118537 26.1449297,17.2033803 26.1465469,17.1946915 C26.1481641,17.1862181 26.1491484,17.1776011 26.1504141,17.168984 C26.1516797,17.1600798 26.1531563,17.1513191 26.154,17.1422713 C26.1541406,17.1409787 26.1544219,17.139758 26.1544922,17.1384654 L26.4187969,14.0399282 L29.14425,14.0399282 C30.7599609,14.0399282 31.4886797,14.8948803 32.2600781,15.8000984 C32.8966172,16.5469787 33.6072656,17.3803165 34.8152344,17.5836064 C34.6618125,19.2402287 34.4138203,21.3669096 34.3028672,22.2981223 Z M34.905375,16.5043245 C34.1217422,16.3411755 33.6396094,15.7785559 33.0555234,15.0932154 C32.3250469,14.2361809 31.4332734,13.1902899 29.7237656,12.9954016 L29.9965781,9.79647606 C32.7924844,10.2187819 34.9451719,12.6852606 34.9451719,15.6561941 C34.9451719,15.8580479 34.9304063,16.1513138 34.905375,16.5043245 Z" id="Shape"></path>
                <path d="M4.9921875,8.65486436 L2.41410937,8.65486436 C2.12280469,8.65486436 1.88676563,8.89599734 1.88676563,9.19342819 C1.88676563,9.49085904 2.12280469,9.73199202 2.41410937,9.73199202 L4.9921875,9.73199202 C5.28349219,9.73199202 5.51953125,9.49085904 5.51953125,9.19342819 C5.51953125,8.89599734 5.28349219,8.65486436 4.9921875,8.65486436 Z" id="Path"></path>
            </g>
        </g>
    </g>
</svg>