<svg viewBox="0 0 24 24" version="1.1" xmlns="http://www.w3.org/2000/svg" xmlns:xlink="http://www.w3.org/1999/xlink">
    <g id="Desktop" stroke="none" stroke-width="1" fill="none" fill-rule="evenodd">
        <g id="Home" transform="translate(-158.000000, -704.000000)" fill="#2C575A" fill-rule="nonzero">
            <g id="percent" transform="translate(158.000000, 704.000000)">
                <polygon id="Path" points="0.185052632 22.9218947 22.9218947 0.185052632 23.8149474 1.07810526 1.07810526 23.8149474"></polygon>
                <path d="M3.78947368,7.57894737 C5.87936842,7.57894737 7.57894737,5.87936842 7.57894737,3.78947368 C7.57894737,1.69957895 5.87936842,0 3.78947368,0 C1.69957895,0 0,1.69957895 0,3.78947368 C0,5.87936842 1.69957895,7.57894737 3.78947368,7.57894737 Z M3.78947368,1.26315789 C5.18273684,1.26315789 6.31578947,2.39621053 6.31578947,3.78947368 C6.31578947,5.18273684 5.18273684,6.31578947 3.78947368,6.31578947 C2.39621053,6.31578947 1.26315789,5.18273684 1.26315789,3.78947368 C1.26315789,2.39621053 2.39621053,1.26315789 3.78947368,1.26315789 Z" id="Shape"></path>
                <path d="M20.2105263,16.4210526 C18.1206316,16.4210526 16.4210526,18.1206316 16.4210526,20.2105263 C16.4210526,22.3004211 18.1206316,24 20.2105263,24 C22.3004211,24 24,22.3004211 24,20.2105263 C24,18.1206316 22.3004211,16.4210526 20.2105263,16.4210526 Z M20.2105263,22.7368421 C18.8172632,22.7368421 17.6842105,21.6037895 17.6842105,20.2105263 C17.6842105,18.8172632 18.8172632,17.6842105 20.2105263,17.6842105 C21.6037895,17.6842105 22.7368421,18.8172632 22.7368421,20.2105263 C22.7368421,21.6037895 21.6037895,22.7368421 20.2105263,22.7368421 Z" id="Shape"></path>
            </g>
        </g>
    </g>
</svg>